<svg width="35" height="35" viewBox="0 0 35 35" fill="none" xmlns="http://www.w3.org/2000/svg">
<circle cx="17.5" cy="17.5" r="16.75" stroke="#F5F5F5" stroke-width="1.5"/>
<mask id="path-2-outside-1_11256_156233" maskUnits="userSpaceOnUse" x="10.576" y="23.4188" width="9" height="4" fill="black">
<rect fill="white" x="10.576" y="23.4188" width="9" height="4"/>
<path d="M17.4246 23.4188C17.4246 24.2701 16.9625 24.9216 16.2121 25.3475C15.4618 25.7731 14.5374 25.7731 13.7886 25.3475C13.0379 24.9216 12.576 24.2701 12.576 23.4188"/>
</mask>
<path d="M17.4246 23.4188C17.4246 24.2701 16.9625 24.9216 16.2121 25.3475C15.4618 25.7731 14.5374 25.7731 13.7886 25.3475C13.0379 24.9216 12.576 24.2701 12.576 23.4188" fill="#F5F5F5"/>
<path d="M16.2121 25.3475L16.9522 26.6521L16.9524 26.652L16.2121 25.3475ZM13.7886 25.3475L14.5298 24.0434L14.5287 24.0428L13.7886 25.3475ZM15.9246 23.4188C15.9246 23.6229 15.854 23.8259 15.4717 24.0429L16.9524 26.652C18.071 26.0173 18.9246 24.9173 18.9246 23.4188H15.9246ZM15.4719 24.0428C15.1803 24.2082 14.8186 24.2075 14.5298 24.0434L13.0474 26.6515C14.2562 27.3386 15.7434 27.338 16.9522 26.6521L15.4719 24.0428ZM14.5287 24.0428C14.1466 23.826 14.076 23.6231 14.076 23.4188H11.076C11.076 24.9171 11.9292 26.0172 13.0485 26.6521L14.5287 24.0428Z" fill="black" mask="url(#path-2-outside-1_11256_156233)"/>
<path d="M13.0564 11.1272V11.1269C13.0568 9.9655 14.0705 9.36108 14.9998 9.36108C15.9296 9.36108 16.9436 9.96532 16.9436 11.1272C16.9436 11.1721 16.9439 11.2115 16.9445 11.2465C19.1246 11.9849 20.6663 13.6347 20.6663 15.8729V17.5169C20.6663 18.1388 20.7931 18.4039 20.9149 18.5644C21.0464 18.7375 21.2086 18.8539 21.5037 19.0656C21.5737 19.1158 21.6511 19.1714 21.7374 19.2343M13.0564 11.1272L20.8771 22.3377L20.8764 23.0877C21.3706 23.0882 21.811 22.921 22.1449 22.6145C22.4719 22.3142 22.658 21.9167 22.7229 21.5123C22.852 20.7087 22.5201 19.8048 21.7374 19.2343M13.0564 11.1272C13.0564 11.1721 13.0561 11.2115 13.0555 11.2465L13.0564 11.1272ZM21.7374 19.2343L21.2953 19.8402L21.7369 19.234C21.7371 19.2341 21.7372 19.2342 21.7374 19.2343ZM9.12357 23.0877C8.62938 23.0882 8.18904 22.921 7.85512 22.6145C7.52809 22.3142 7.34205 21.9167 7.2771 21.5123C7.14804 20.7087 7.4799 19.8047 8.26267 19.2343L9.12357 23.0877ZM9.12357 23.0877H9.12289V22.3377L9.12357 23.0877Z" fill="#F5F5F5" stroke="black" stroke-width="1.5"/>
<path fill-rule="evenodd" clip-rule="evenodd" d="M28.8158 9.17982C28.9337 9.29499 29 9.45118 29 9.61404C29 9.77689 28.9337 9.93308 28.8158 10.0483L24.5827 15.7293C24.4648 15.8444 24.3048 15.9091 24.1379 15.9091C23.9711 15.9091 23.8111 15.8444 23.6931 15.7293L21.1766 13.2726C21.062 13.1568 20.9986 13.0016 21 12.8406C21.0015 12.6796 21.0676 12.5255 21.1843 12.4116C21.3009 12.2978 21.4587 12.2332 21.6237 12.2318C21.7886 12.2304 21.9475 12.2923 22.0662 12.4042L24.1379 14.4266L27.9262 9.17982C28.0442 9.06468 28.2042 9 28.371 9C28.5378 9 28.6978 9.06468 28.8158 9.17982Z" fill="#F5F5F5"/>
</svg>